:SAMPLES-PER-SECOND 30
:FULLY-SPECIFIED
:DEGREES
493
root  -17.4406 36.7303 3.89839 40.4733 -75.455 -57.1224
RightUpLeg  -29.9596 -53.9613 -17.8936
RightLeg  79.1283 -0.513648 -5.29499
RightFoot  39.4474 -9.02799 19.5703
RightToes  6.35927e-011 1.30204e-014 -6.03759e-014
Spine  25.9976 1.79012 -18.8924
Spine1  4.40929 -6.83122 17.7976
HEad  -15.4356 12.4336 9.24228
LeftShoulder1  1.07895 -1.52167 -14.5361
LeftArm  -0.625397 -2.63614 -67.373
LeftForeArm  150.126 -79.7671 -121.3
LeftHand  -0.605129 15.8173 -5.50063
RightShoulder  1.08009 0.721435 19.1827
RightArm  -4.00147 -43.9625 47.5431
RightForeArm  42.2198 46.5842 8.85041
RightHand  0.118496 -13.8597 -2.63938
LeftUpLeg  -9.93022 33.5612 36.5482
LeftLeg  62.8647 -0.582641 -0.516087
LeftFoot  1.14007 2.06259 -18.6625
LeftToes  7.40077e-010 7.2695e-011 -6.03601e-011
494
root  -17.7838 36.7999 3.89455 46.9009 -74.5187 -63.8058
RightUpLeg  -37.8704 -61.4128 -17.9704
RightLeg  90.9491 0.779837 -7.84587
RightFoot  30.334 -7.70761 20.5382
RightToes  6.35927e-011 1.30204e-014 -6.03759e-014
Spine  25.3895 1.10981 -19.2645
Spine1  3.06619 -7.18016 18.1329
HEad  -11.8343 14.5643 11.2462
LeftShoulder1  0.608124 0.253064 -11.5955
LeftArm  -2.76922 -6.76802 -67.3712
LeftForeArm  164.136 -77.6287 -135.4
LeftHand  -0.846747 17.4998 -6.90063
RightShoulder  1.04543 0.646444 18.7764
RightArm  -3.68873 -51.3586 44.7606
RightForeArm  43.1793 50.0079 10.0729
RightHand  0.248941 -12.4263 -4.97182
LeftUpLeg  -8.01875 34.6641 41.4738
LeftLeg  62.9306 -2.88475 -5.42296
LeftFoot  2.48406 2.45422 -20.2747
LeftToes  7.40077e-010 7.2695e-011 -6.03601e-011
495
root  -17.9881 36.8448 3.94367 56.5314 -74.8131 -73.3562
RightUpLeg  -48.1489 -61.3785 -14.0097
RightLeg  100.197 3.37828 -13.8657
RightFoot  24.1819 -4.85794 15.6489
RightToes  6.35927e-011 1.30204e-014 -6.03759e-014
Spine  24.4942 0.609699 -18.8967
Spine1  2.64237 -6.91938 16.5977
HEad  -10.0526 16.5906 12.7808
LeftShoulder1  0.382201 1.29555 -10.0344
LeftArm  -5.19341 -9.56574 -64.5464
LeftForeArm  172.883 -75.6779 -143.183
LeftHand  -0.93993 17.9956 -7.41759
RightShoulder  0.960678 0.380659 18.2888
RightArm  -2.15614 -55.0049 42.3405
RightForeArm  45.6148 51.5562 10.5556
RightHand  0.199898 -12.0208 -4.49342
LeftUpLeg  -5.46225 31.2517 42.3527
LeftLeg  61.2269 -3.31456 -5.93751
LeftFoot  -1.57616 2.10257 -24.3006
LeftToes  7.40077e-010 7.2695e-011 -6.03601e-011
496
root  -17.969 36.8824 4.12861 67.5397 -74.0434 -84.8267
RightUpLeg  -53.6391 -57.7361 -9.85228
RightLeg  104.732 6.48703 -19.7229
RightFoot  23.1404 -2.56104 8.80594
RightToes  6.35927e-011 1.30204e-014 -6.03759e-014
Spine  24.583 0.342469 -17.2983
Spine1  3.31891 -6.63977 15.5347
HEad  -10.4611 18.4843 13.4566
LeftShoulder1  0.349012 1.40568 -9.23078
LeftArm  -7.95855 -10.6712 -61.2568
LeftForeArm  178.702 -74.2685 -147.423
LeftHand  -0.910106 17.9935 -7.15435
RightShoulder  0.874539 0.0672351 18.0384
RightArm  -0.06044 -54.7988 39.9758
RightForeArm  46.1793 51.8174 10.6322
RightHand  0.0557972 -13.2625 -1.88742
LeftUpLeg  -4.10987 25.3517 41.1436
LeftLeg  59.7674 -0.996042 -1.23388
LeftFoot  -5.67709 1.45034 -27.9331
LeftToes  7.40077e-010 7.2695e-011 -6.03601e-011
497
root  -17.8529 36.9382 4.2869 74.8853 -72.6745 -92.9469
RightUpLeg  -53.2974 -54.401 -7.00259
RightLeg  105.399 8.03721 -23.1811
RightFoot  23.4994 -1.67047 5.84691
RightToes  6.35927e-011 1.30204e-014 -6.03759e-014
Spine  25.364 0.284881 -16.7183
Spine1  4.48802 -6.99207 16.1441
HEad  -11.591 20.5883 13.5456
LeftShoulder1  0.392808 1.13391 -9.1432
LeftArm  -11.0077 -9.72067 -58.0992
LeftForeArm  -178.913 -73.1523 -149.954
LeftHand  -0.919525 18.3672 -7.00757
RightShoulder  0.844735 -0.0285023 17.8432
RightArm  2.14778 -52.2237 37.8437
RightForeArm  46.0154 52.4611 10.9323
RightHand  -0.180235 -14.913 1.16608
LeftUpLeg  -3.90602 19.5837 39.6355
LeftLeg  59.4914 2.13173 4.51991
LeftFoot  -6.2463 1.41158 -30.1335
LeftToes  7.40077e-010 7.2695e-011 -6.03601e-011
498
root  -17.7682 37.0309 4.3589 79.7526 -72.7203 -97.8629
RightUpLeg  -50.9207 -52.0381 -5.05034
RightLeg  103.124 7.488 -24.7622
RightFoot  23.6315 -1.87802 6.48515
RightToes  6.35927e-011 1.30204e-014 -6.03759e-014
Spine  25.5539 0.383435 -18.0566
Spine1  5.05759 -7.52292 16.9086
HEad  -11.7893 22.2823 13.7247
LeftShoulder1  0.476688 0.702723 -9.64132
LeftArm  -13.0482 -7.80692 -55.0781
LeftForeArm  179.898 -72.5342 -150.876
LeftHand  -0.977318 19.1156 -7.06214
RightShoulder  0.869306 0.101887 17.6209
RightArm  3.23188 -50.1435 36.7488
RightForeArm  47.6261 54.5401 11.8105
RightHand  -0.355872 -15.3678 3.05745
LeftUpLeg  -4.07568 14.1883 36.7165
LeftLeg  59.2978 4.18239 8.17035
LeftFoot  -5.44714 1.73045 -32.1909
LeftToes  7.40077e-010 7.2695e-011 -6.03601e-011
499
root  -17.7105 37.0718 4.51054 87.3395 -74.142 -104.056
RightUpLeg  -49.3164 -48.4417 -2.7935
RightLeg  98.436 5.01498 -23.892
RightFoot  23.2626 -2.37442 8.14599
RightToes  6.35927e-011 1.30204e-014 -6.03759e-014
Spine  24.5895 0.451243 -19.1066
Spine1  4.43509 -7.18221 15.9167
HEad  -11.1791 22.8373 14.0817
LeftShoulder1  0.566405 0.234877 -10.0004
LeftArm  -12.9681 -6.42316 -53.3725
LeftForeArm  177.378 -73.0481 -149.587
LeftHand  -0.89878 19.4735 -6.24663
RightShoulder  0.875595 0.155042 17.4225
RightArm  2.70372 -50.4263 37.0529
RightForeArm  50.871 58.3548 13.6881
RightHand  -0.329683 -14.7093 2.96671
LeftUpLeg  -4.37873 8.49704 31.565
LeftLeg  58.6511 5.46168 10.1694
LeftFoot  -6.38712 1.59665 -35.1003
LeftToes  7.40077e-010 7.2695e-011 -6.03601e-011
500
root  -17.6447 37.0273 4.74632 101.194 -75.0472 -115.5
RightUpLeg  -47.6571 -41.0463 0.51765
RightLeg  91.3725 1.53417 -19.2692
RightFoot  22.6985 -3.35216 11.4322
RightToes  6.35927e-011 1.30204e-014 -6.03759e-014
Spine  23.1303 0.549353 -18.3049
Spine1  2.90152 -5.78602 13.3471
HEad  -11.0745 23.0195 13.94
LeftShoulder1  0.581796 0.146598 -9.99792
LeftArm  -11.5283 -5.10955 -53.4922
LeftForeArm  176.504 -74.2314 -147.153
LeftHand  -0.521223 18.3281 -3.52952
RightShoulder  0.831249 -0.00152466 17.2131
RightArm  1.71926 -51.7109 38.434
RightForeArm  54.8737 63.2973 16.9049
RightHand  -0.200347 -14.127 1.56378
LeftUpLeg  -4.73899 2.34853 25.691
LeftLeg  57.9544 6.97481 12.3913
LeftFoot  -8.59564 0.994697 -37.9819
LeftToes  7.40077e-010 7.2695e-011 -6.03601e-011
501
root  -17.6132 36.8836 4.85082 118.639 -74.5061 -130.576
RightUpLeg  -43.784 -29.4388 3.59319
RightLeg  82.0139 -0.94073 -11.8822
RightFoot  22.9528 -5.03885 16.7574
RightToes  6.35927e-011 1.30204e-014 -6.03759e-014
Spine  22.038 0.989862 -17.4982
Spine1  0.985901 -4.24706 11.0307
HEad  -11.897 24.1767 12.8514
LeftShoulder1  0.531931 0.509002 -10.4964
LeftArm  -10.2179 -2.21591 -53.3733
LeftForeArm  178.206 -74.7703 -146.254
LeftHand  -0.0656136 15.3349 0.196257
RightShoulder  0.800931 -0.0861379 16.8927
RightArm  1.5176 -51.5167 40.3559
RightForeArm  60.5432 68.1547 21.3434
RightHand  -0.0986624 -13.5259 0.333243
LeftUpLeg  -5.02504 -4.4934 20.164
LeftLeg  58.1974 9.00442 15.8272
LeftFoot  -9.97266 0.558435 -40.0571
LeftToes  7.40077e-010 7.2695e-011 -6.03601e-011
502
root  -17.619 36.6504 4.83748 132.308 -73.6086 -142.348
RightUpLeg  -37.9335 -16.7457 6.09116
RightLeg  71.5327 -1.62666 -6.22594
RightFoot  21.8989 -5.83461 19.9755
RightToes  6.35927e-011 1.30204e-014 -6.03759e-014
Spine  21.6152 1.38938 -18.0589
Spine1  -0.626466 -3.60115 10.4303
HEad  -12.8158 26.0136 11.2361
LeftShoulder1  0.534256 0.684925 -11.7638
LeftArm  -8.99101 1.95782 -51.4566
LeftForeArm  178.54 -74.866 -146.118
LeftHand  -0.00597946 12.6028 0.750323
RightShoulder  0.837219 0.110802 16.5822
RightArm  1.71728 -49.7562 42.501
RightForeArm  68.6404 72.4764 27.3484
RightHand  -0.0774826 -12.1475 0.204242
LeftUpLeg  -5.42551 -12.0443 14.8144
LeftLeg  59.6057 11.0246 20.0033
LeftFoot  -10.4616 0.389534 -41.1996
LeftToes  7.40077e-010 7.2695e-011 -6.03601e-011
503
root  -17.6246 36.5068 4.83117 138.2 -74.3306 -146.314
RightUpLeg  -31.371 -7.49504 8.81215
RightLeg  61.3427 -3.74349 -7.56323
RightFoot  14.2229 -3.83064 16.7539
RightToes  6.35927e-011 1.30204e-014 -6.03759e-014
Spine  21.7365 0.950935 -18.2141
Spine1  -1.47348 -4.09503 11.0833
HEad  -13.0524 26.7931 9.73654
LeftShoulder1  0.670962 0.112066 -12.7246
LeftArm  -6.83629 5.11036 -49.3378
LeftForeArm  169.931 -76.4452 -140.343
LeftHand  -0.524069 13.3888 -5.54542
RightShoulder  0.869316 0.252972 16.5536
RightArm  0.953211 -48.2443 44.7904
RightForeArm  80.7034 76.8054 38.287
RightHand  -0.0946554 -10.45 0.817739
LeftUpLeg  -6.18105 -18.6053 10.5724
LeftLeg  60.0154 13.0739 23.5073
LeftFoot  -11.482 0.0181402 -40.0536
LeftToes  7.40077e-010 7.2695e-011 -6.03601e-011
